<svg xmlns="http://www.w3.org/2000/svg" viewBox="0 0 128 128">
  <!-- Pip placeholder art: walk-2 -->
  <ellipse cx="64" cy="123" rx="34" ry="4.5" fill="#000" opacity="0.18"/>
  <path d="M22 98 C6 96 2 76 12 64" fill="none" stroke="#3a2618" stroke-width="12" stroke-linecap="round"/>
  <path d="M22 98 C6 96 2 76 12 64" fill="none" stroke="#ffb24f" stroke-width="6" stroke-linecap="round"/>
  <ellipse cx="43" cy="116" rx="13" ry="7.5" fill="#f2923a" stroke="#3a2618" stroke-width="3"/>
  <ellipse cx="84" cy="111" rx="13" ry="7.5" fill="#f2923a" stroke="#3a2618" stroke-width="3" transform="rotate(12 84 111)"/>
  <g transform="translate(0 -1)">
  <path d="M30 50 L27 14 L58 34 Z" fill="#ffb24f" stroke="#3a2618" stroke-width="3.5" stroke-linejoin="round"/>
  <path d="M98 50 L101 14 L70 34 Z" fill="#ffb24f" stroke="#3a2618" stroke-width="3.5" stroke-linejoin="round"/>
  <path d="M34 40 L32.5 23 L48 33 Z" fill="#ff8f8f"/>
  <path d="M94 40 L95.5 23 L80 33 Z" fill="#ff8f8f"/>
  <path d="M64 27 C95 27 112 50 112 79 C112 104 93 116 64 116 C35 116 16 104 16 79 C16 50 33 27 64 27 Z" fill="#ffb24f" stroke="#3a2618" stroke-width="3.5"/>
  <ellipse cx="64" cy="95" rx="27" ry="16" fill="#ffe2b8"/>
  <ellipse cx="38" cy="82" rx="7.5" ry="4.5" fill="#ff6f6f" opacity="0.5"/>
  <ellipse cx="98" cy="82" rx="7.5" ry="4.5" fill="#ff6f6f" opacity="0.5"/>
  <ellipse cx="51" cy="68" rx="7" ry="9" fill="#2b1a10"/>
  <circle cx="53.5" cy="64.5" r="2.7" fill="#fff"/>
  <ellipse cx="85" cy="68" rx="7" ry="9" fill="#2b1a10"/>
  <circle cx="87.5" cy="64.5" r="2.7" fill="#fff"/>
  <path d="M61 81 Q64.5 86 68 81 Q71.5 86 75 81" fill="none" stroke="#2b1a10" stroke-width="2.8" stroke-linecap="round" stroke-linejoin="round"/>
  </g>
</svg>
